<svg width="137" height="137" viewBox="0 0 137 137" fill="none" xmlns="http://www.w3.org/2000/svg">
<circle cx="4.96377" cy="4.96377" r="4.96377" fill="#C4C4C4"/>
<circle cx="20.8478" cy="4.96377" r="4.96377" fill="#C4C4C4"/>
<circle cx="36.7319" cy="4.96377" r="4.96377" fill="#C4C4C4"/>
<circle cx="52.6159" cy="4.96377" r="4.96377" fill="#C4C4C4"/>
<circle cx="68.5" cy="4.96377" r="4.96377" fill="#C4C4C4"/>
<circle cx="84.3841" cy="4.96377" r="4.96377" fill="#C4C4C4"/>
<circle cx="100.268" cy="4.96377" r="4.96377" fill="#C4C4C4"/>
<circle cx="116.152" cy="4.96377" r="4.96377" fill="#C4C4C4"/>
<circle cx="132.036" cy="4.96377" r="4.96377" fill="#C4C4C4"/>
<circle cx="4.96377" cy="20.8478" r="4.96377" fill="#C4C4C4"/>
<circle cx="20.8478" cy="20.8478" r="4.96377" fill="#C4C4C4"/>
<circle cx="36.7319" cy="20.8478" r="4.96377" fill="#C4C4C4"/>
<circle cx="52.6159" cy="20.8478" r="4.96377" fill="#C4C4C4"/>
<circle cx="68.5" cy="20.8478" r="4.96377" fill="#C4C4C4"/>
<circle cx="84.3841" cy="20.8478" r="4.96377" fill="#C4C4C4"/>
<circle cx="100.268" cy="20.8478" r="4.96377" fill="#C4C4C4"/>
<circle cx="116.152" cy="20.8478" r="4.96377" fill="#C4C4C4"/>
<circle cx="132.036" cy="20.8478" r="4.96377" fill="#C4C4C4"/>
<circle cx="4.96377" cy="100.268" r="4.96377" fill="#C4C4C4"/>
<circle cx="20.8478" cy="100.268" r="4.96377" fill="#C4C4C4"/>
<circle cx="36.7319" cy="100.268" r="4.96377" fill="#C4C4C4"/>
<circle cx="52.6159" cy="100.268" r="4.96377" fill="#C4C4C4"/>
<circle cx="68.5" cy="100.268" r="4.96377" fill="#C4C4C4"/>
<circle cx="84.3841" cy="100.268" r="4.96377" fill="#C4C4C4"/>
<circle cx="100.268" cy="100.268" r="4.96377" fill="#C4C4C4"/>
<circle cx="116.152" cy="100.268" r="4.96377" fill="#C4C4C4"/>
<circle cx="132.036" cy="100.268" r="4.96377" fill="#C4C4C4"/>
<circle cx="4.96377" cy="116.152" r="4.96377" fill="#C4C4C4"/>
<circle cx="20.8478" cy="116.152" r="4.96377" fill="#C4C4C4"/>
<circle cx="36.7319" cy="116.152" r="4.96377" fill="#C4C4C4"/>
<circle cx="52.6159" cy="116.152" r="4.96377" fill="#C4C4C4"/>
<circle cx="68.5" cy="116.152" r="4.96377" fill="#C4C4C4"/>
<circle cx="84.3841" cy="116.152" r="4.96377" fill="#C4C4C4"/>
<circle cx="100.268" cy="116.152" r="4.96377" fill="#C4C4C4"/>
<circle cx="116.152" cy="116.152" r="4.96377" fill="#C4C4C4"/>
<circle cx="132.036" cy="116.152" r="4.96377" fill="#C4C4C4"/>
<circle cx="4.96377" cy="132.036" r="4.96377" fill="#C4C4C4"/>
<circle cx="20.8478" cy="132.036" r="4.96377" fill="#C4C4C4"/>
<circle cx="36.7319" cy="132.036" r="4.96377" fill="#C4C4C4"/>
<circle cx="52.6159" cy="132.036" r="4.96377" fill="#C4C4C4"/>
<circle cx="68.5" cy="132.036" r="4.96377" fill="#C4C4C4"/>
<circle cx="84.3841" cy="132.036" r="4.96377" fill="#C4C4C4"/>
<circle cx="100.268" cy="132.036" r="4.96377" fill="#C4C4C4"/>
<circle cx="116.152" cy="132.036" r="4.96377" fill="#C4C4C4"/>
<circle cx="132.036" cy="132.036" r="4.96377" fill="#C4C4C4"/>
<circle cx="4.96377" cy="68.4999" r="4.96377" fill="#C4C4C4"/>
<circle cx="20.8478" cy="68.4999" r="4.96377" fill="#C4C4C4"/>
<circle cx="36.7319" cy="68.4999" r="4.96377" fill="#C4C4C4"/>
<circle cx="52.6159" cy="68.4999" r="4.96377" fill="#C4C4C4"/>
<circle cx="68.5" cy="68.4999" r="4.96377" fill="#C4C4C4"/>
<circle cx="84.3841" cy="68.4999" r="4.96377" fill="#C4C4C4"/>
<circle cx="100.268" cy="68.4999" r="4.96377" fill="#C4C4C4"/>
<circle cx="116.152" cy="68.4999" r="4.96377" fill="#C4C4C4"/>
<circle cx="132.036" cy="68.4999" r="4.96377" fill="#C4C4C4"/>
<circle cx="4.96377" cy="84.3842" r="4.96377" fill="#C4C4C4"/>
<circle cx="20.8478" cy="84.3842" r="4.96377" fill="#C4C4C4"/>
<circle cx="36.7319" cy="84.3842" r="4.96377" fill="#C4C4C4"/>
<circle cx="52.6159" cy="84.3842" r="4.96377" fill="#C4C4C4"/>
<circle cx="68.5" cy="84.3842" r="4.96377" fill="#C4C4C4"/>
<circle cx="84.3841" cy="84.3842" r="4.96377" fill="#C4C4C4"/>
<circle cx="100.268" cy="84.3842" r="4.96377" fill="#C4C4C4"/>
<circle cx="116.152" cy="84.3842" r="4.96377" fill="#C4C4C4"/>
<circle cx="132.036" cy="84.3842" r="4.96377" fill="#C4C4C4"/>
<circle cx="4.96377" cy="36.7318" r="4.96377" fill="#C4C4C4"/>
<circle cx="20.8478" cy="36.7318" r="4.96377" fill="#C4C4C4"/>
<circle cx="36.7319" cy="36.7318" r="4.96377" fill="#C4C4C4"/>
<circle cx="52.6159" cy="36.7318" r="4.96377" fill="#C4C4C4"/>
<circle cx="68.5" cy="36.7318" r="4.96377" fill="#C4C4C4"/>
<circle cx="84.3841" cy="36.7318" r="4.96377" fill="#C4C4C4"/>
<circle cx="100.268" cy="36.7318" r="4.96377" fill="#C4C4C4"/>
<circle cx="116.152" cy="36.7318" r="4.96377" fill="#C4C4C4"/>
<circle cx="132.036" cy="36.7318" r="4.96377" fill="#C4C4C4"/>
<circle cx="4.96377" cy="52.6159" r="4.96377" fill="#C4C4C4"/>
<circle cx="20.8478" cy="52.6159" r="4.96377" fill="#C4C4C4"/>
<circle cx="36.7319" cy="52.6159" r="4.96377" fill="#C4C4C4"/>
<circle cx="52.6159" cy="52.6159" r="4.96377" fill="#C4C4C4"/>
<circle cx="68.5" cy="52.6159" r="4.96377" fill="#C4C4C4"/>
<circle cx="84.3841" cy="52.6159" r="4.96377" fill="#C4C4C4"/>
<circle cx="100.268" cy="52.6159" r="4.96377" fill="#C4C4C4"/>
<circle cx="116.152" cy="52.6159" r="4.96377" fill="#C4C4C4"/>
<circle cx="132.036" cy="52.6159" r="4.96377" fill="#C4C4C4"/>
</svg>
