<svg width="58" height="58" viewBox="0 0 58 58" fill="none" xmlns="http://www.w3.org/2000/svg">
<path d="M58 29C58 23.1153 56.2097 17.3698 52.8669 12.5266C49.5241 7.68352 44.787 3.97197 39.2847 1.88497C33.7825 -0.202023 27.7755 -0.565704 22.0617 0.842237C16.3478 2.25018 11.1975 5.36311 7.29485 9.76757C3.39216 14.172 0.92178 19.6596 0.211821 25.5013C-0.498139 31.3431 0.585926 37.2626 3.32003 42.4736C6.05413 47.6847 10.3089 51.9406 15.5191 54.6762C20.7294 57.4118 26.6486 58.4975 32.4906 57.7892L31.6772 51.0805C27.1966 51.6238 22.6567 50.791 18.6605 48.6929C14.6644 46.5948 11.4011 43.3306 9.30416 39.3339C7.20718 35.3372 6.37573 30.7971 6.92025 26.3166C7.46477 21.8361 9.35948 17.6273 12.3527 14.2492C15.346 10.8711 19.2961 8.48361 23.6785 7.40376C28.0608 6.32391 32.668 6.60284 36.8881 8.20351C41.1082 9.80418 44.7414 12.6508 47.3053 16.3654C49.8691 20.0799 51.2422 24.4866 51.2422 29H58Z" fill="#F15721"/>
</svg>
