<?xml version="1.0" encoding="UTF-8"?>
<!DOCTYPE svg PUBLIC "-//W3C//DTD SVG 1.1//EN" "http://www.w3.org/Graphics/SVG/1.1/DTD/svg11.dtd">
<!-- Creator: CorelDRAW -->
<svg xmlns="http://www.w3.org/2000/svg" xml:space="preserve" style="shape-rendering:geometricPrecision; text-rendering:geometricPrecision; image-rendering:optimizeQuality; fill-rule:evenodd; clip-rule:evenodd"
viewBox="0 0 68.8307 49.9854"
 xmlns:xlink="http://www.w3.org/1999/xlink">
 <defs>
  <style type="text/css">
   <![CDATA[
    .fil1 {fill:#00A2E9}
    .fil0 {fill:#EA5729}
   ]]>
  </style>
 </defs>
 <g id="Layer_x0020_1">
  <metadata id="CorelCorpID_0Corel-Layer"/>
  <g id="_262361392">
   <path id="_260940176" class="fil0" d="M68.8307 44.6988c-2.42253,-3.21099 -6.39398,-5.75727 -12.9319,-7.2022 1.98524,-7.51737 0.865194,-14.5634 -3.37662,-21.1359 -4.15741,-5.32439 -10.1451,-6.98164 -18.3727,-4.15153 -5.57989,2.61354 -9.44008,7.69932 -11.7211,15.0552 4.0148,-7.67924 9.34106,-12.7259 17.4002,-12.2861 6.48598,0.923641 11.0746,5.75376 13.7987,14.4118 1.13016,4.17651 1.31008,8.82655 0.507411,13.9659 3.666,-1.83324 8.49219,-1.51978 14.696,1.34281z"/>
   <path id="_260940680" class="fil1" d="M53.1205 43.4992c0,0 -2.75729,-2.28751 -10.0725,6.48614 0,0 1.00592,-6.014 9.11772,-11.9066 0,0 0.0807319,-8.38404 -7.56357,-13.1328 0,0 -4.7733,-4.49748 -16.3936,0.0777116 0,0 0.670181,1.94369 3.68453,3.20919 0,0 -4.7333,2.97508 -7.78838,0.431414 0,0 1.28428,-9.85631 14.7413,-11.9407 0,0 7.73875,-1.38583 12.8509,10.1161 0,0 3.30242,8.03972 1.42354,16.6597z"/>
   <path id="_260940248" class="fil1" d="M54.8336 17.5398c0,0 -2.95492,-6.82931 -5.57164,-9.02728 0,0 4.47511,-1.22877 9.43388,1.73953 0,0 -2.86374,-4.95893 -14.2543,-5.90461 0,0 -13.0324,-8.38665 -26.5557,-1.86312 0,0 -1.87798,0.877112 -4.17692,2.6715 0,0 -2.31429,0.631325 -3.99015,-1.13074l-3.02398 7.9878 1.66125 -8.33057c0,0 -2.19078,0.644223 -3.46274,-0.563327 0,0 -0.776544,3.59024 0.169382,12.0696 0,0 -2.78407,-7.14865 -2.01838,-12.0638 0,0 -1.72092,-0.14326 -3.0443,-1.21881 0,0 0.51737,10.1828 4.38703,14.9601 0,0 -6.01097,11.2211 2.79043,28.5053l6.45912 -6.09097c0,0 1.09343,3.86142 3.1772,6.37806 0,0 0.605938,-34.8052 22.6083,-36.4424 0,0 9.8399,-0.703567 15.4115,8.32371zm-47.548 18.1602c-0.159586,-0.722995 0.297214,-1.43848 1.02029,-1.59807 0.722995,-0.159505 1.43848,0.297296 1.59807,1.02029 0.159505,0.723077 -0.297296,1.43856 -1.02029,1.59815 -0.723077,0.159505 -1.43856,-0.297377 -1.59807,-1.02037zm9.86676 -5.64193c0,0 -5.04089,-7.89752 -11.3916,-0.221543 0,0 4.95656,-4.15055 11.3916,0.221543zm-0.475739 -12.364c0,0 3.05222,-6.94817 9.86464,-9.97982 0,0 -10.3108,0.666263 -14.3804,9.93051 0,0 2.19968,-0.968048 4.51576,0.0493044z"/>
  </g>
 </g>
</svg>
