<?xml version="1.0" encoding="UTF-8"?>
<!DOCTYPE svg PUBLIC "-//W3C//DTD SVG 1.1//EN" "http://www.w3.org/Graphics/SVG/1.1/DTD/svg11.dtd">
<!-- Creator: CorelDRAW -->
<svg xmlns="http://www.w3.org/2000/svg" xml:space="preserve" width="104.381mm" height="109.021mm" style="shape-rendering:geometricPrecision; text-rendering:geometricPrecision; image-rendering:optimizeQuality; fill-rule:evenodd; clip-rule:evenodd"
viewBox="0 0 56.2274 58.7267"
 xmlns:xlink="http://www.w3.org/1999/xlink">
 <defs>
  <style type="text/css">
   <![CDATA[
    .fil0 {fill:#00A2E9}
    .fil1 {fill:#EA5729}
   ]]>
  </style>
 </defs>
 <g id="Layer_x0020_1">
  <metadata id="CorelCorpID_0Corel-Layer"/>
  <path class="fil0" d="M21.4424 47.9597l-8.33772 3.24245 -2.31603 4.16886c0,0 -4.06199,2.88611 -3.56312,-1.99536l2.63671 -5.48721 7.01937 -2.88611 -2.74358 -2.20916 -5.91471 1.42512c0,0 -1.38957,0.570134 -2.67231,-0.0356064l-5.34468 -2.77924c0,0 -1.28269,-5.16654 3.77692,-3.06431l2.99299 1.71029 4.66767 -1.10455 0.142533 -2.1735 -5.55843 -1.78161c0,0 -0.498867,-0.0712128 -1.24714,-0.96202l-4.88147 -4.73894c0,0 -1.03329,-4.48959 3.56312,-3.13557l4.31139 4.52519 5.41595 2.06657 1.35396 -1.92404c0,0 -2.83278,-0.641346 -2.92188,-4.4717 0,0 -4.72106,-1.83494 -4.79232,-6.46701 0,0 -5.05972,-1.78161 -1.21159,-11.1882 0,0 4.1332,-7.98139 10.9744,-8.694 0,0 -2.85056,4.5608 -2.99304,9.69168 0,0 3.27805,-0.46353 7.98139,-7.83885 0,0 6.41363,15.8202 -10.1192,19.2408 0,0 0.302843,1.01551 5.05961,0.40977 0,0 0.677007,2.28037 -1.10455,3.84813l2.24477 0.926413c0,0 0.285067,-2.70797 9.69168,-2.56544l0 26.3386c-1.86048,-0.00404006 -3.84657,-0.628472 -6.11062,-2.09135z"/>
  <path class="fil1" d="M34.785 50.4681l8.33772 3.24245 2.31603 4.16886c0,0 4.06199,2.88611 3.56312,-1.99536l-2.63671 -5.48721 -7.01937 -2.88611 2.74358 -2.20916 5.91471 1.42512c0,0 1.38957,0.570134 2.67231,-0.0356064l5.34468 -2.77924c0,0 1.28269,-5.16654 -3.77692,-3.06431l-2.99299 1.71029 -4.66767 -1.10455 -0.142533 -2.1735 5.55843 -1.78161c0,0 0.498867,-0.0712128 1.24714,-0.96202l4.88147 -4.73894c0,0 1.03329,-4.48959 -3.56312,-3.13557l-4.31139 4.52519 -5.41595 2.06657 -1.35396 -1.92404c0,0 2.83278,-0.641346 2.92188,-4.4717 0,0 4.72106,-1.83494 4.79232,-6.46701 0,0 5.05972,-1.78161 1.21159,-11.1882 0,0 -4.1332,-7.98139 -10.9744,-8.694 0,0 2.85056,4.5608 2.99304,9.69168 0,0 -3.27805,-0.46353 -7.98139,-7.83885 0,0 -6.41363,15.8202 10.1192,19.2408 0,0 -0.302843,1.01551 -5.05961,0.40977 0,0 -0.677007,2.28037 1.10455,3.84813l-2.24477 0.926413c0,0 -0.285067,-2.70797 -9.69168,-2.56544l0 26.3386c1.86048,-0.00404006 3.84657,-0.628472 6.11062,-2.09135z"/>
 </g>
</svg>
