<?xml version="1.0" encoding="UTF-8"?>
<!DOCTYPE svg PUBLIC "-//W3C//DTD SVG 1.1//EN" "http://www.w3.org/Graphics/SVG/1.1/DTD/svg11.dtd">
<!-- Creator: CorelDRAW -->
<svg xmlns="http://www.w3.org/2000/svg" xml:space="preserve" width="64.2003mm" height="56.5117mm" style="shape-rendering:geometricPrecision; text-rendering:geometricPrecision; image-rendering:optimizeQuality; fill-rule:evenodd; clip-rule:evenodd"
viewBox="0 0 33.2246 29.2456"
 xmlns:xlink="http://www.w3.org/1999/xlink">
 <defs>
  <style type="text/css">
   <![CDATA[
    .fil1 {fill:#00A2E9}
    .fil0 {fill:#EA5729}
   ]]>
  </style>
 </defs>
 <g id="Layer_x0020_1">
  <metadata id="CorelCorpID_0Corel-Layer"/>
  <g id="_818273520">
   <path id="_818275536" class="fil0" d="M16.6039 25.091l-3.38631 0c0,-2.12486 1.51611,-3.84741 3.38631,-3.84741 1.87025,0 3.38636,1.72255 3.38636,3.84741l-3.38636 0z"/>
   <path id="_260947232" class="fil1" d="M1.15401 24.8505l2.29777 0c0,0 11.5956,1.81684 26.3975,0l2.13744 0c0,0 1.28245,0.480927 0,1.65651 0,0 -1.76338,2.61837 -6.25204,2.72523l-18.2217 0c0,0 -3.47335,0.37406 -6.46578,-2.8321 0,0 -1.12218,-0.854986 0.106867,-1.54965z"/>
   <path id="_262265992" class="fil1" d="M11.2 25.0108l-1.65651 0c0,0 -8.95052,-3.90082 -9.53837,-10.2597 0,0 -0.213734,-2.1909 2.13744,-3.90087 0,0 1.17559,5.93139 9.05744,14.1606z"/>
   <path id="_818274816" class="fil0" d="M12.4691 24.9841l-0.360656 0c0,0 -9.03079,-8.99068 -9.4048,-15.1893 0,0 -0.427519,-3.1527 3.47335,-4.48861 0,0 1.49619,8.65663 5.98485,17.6339l0.427519 -0.801527c0,0 -5.18332,-11.0613 -5.61084,-16.3514 0,0 -1.17559,-3.20621 5.07646,-3.63368l2.13744 18.3286 0.641253 -0.160326c0,0 -2.03062,-13.359 -2.03062,-19.0233 0,0 0.267193,-0.961853 3.4734,-1.28245l0 20.6798c0,0 -3.39319,-0.160274 -3.80736,4.28828z"/>
   <path id="_818273592" class="fil0" d="M22.0247 24.9948l1.65656 0c0,0 8.95052,-3.90082 9.53832,-10.2597 0,0 0.213785,-2.1909 -2.13744,-3.90087 0,0 -1.17559,5.93144 -9.05744,14.1606z"/>
   <path id="_818273568" class="fil1" d="M20.7556 24.9681l0.360656 0c0,0 9.03079,-8.99068 9.40485,-15.1893 0,0 0.427467,-3.1527 -3.4734,-4.48861 0,0 -1.49619,8.65668 -5.98485,17.634l-0.427467 -0.801527c0,0 5.18332,-11.0613 5.61079,-16.3515 0,0 1.17559,-3.20621 -5.07646,-3.63368l-2.13744 18.3286 -0.641201 -0.160274c0,0 2.03057,-13.3591 2.03057,-19.0233 0,0 -0.267193,-0.961853 -3.47335,-1.28245l0 20.6798c0,0 3.39319,-0.160274 3.8073,4.28828z"/>
  </g>
 </g>
</svg>
