<?xml version="1.0" encoding="UTF-8"?>
<!DOCTYPE svg PUBLIC "-//W3C//DTD SVG 1.1//EN" "http://www.w3.org/Graphics/SVG/1.1/DTD/svg11.dtd">
<!-- Creator: CorelDRAW -->
<svg xmlns="http://www.w3.org/2000/svg" xml:space="preserve" width="176.281mm" height="208.175mm" style="shape-rendering:geometricPrecision; text-rendering:geometricPrecision; image-rendering:optimizeQuality; fill-rule:evenodd; clip-rule:evenodd"
viewBox="0 0 188.837 223.003"
 xmlns:xlink="http://www.w3.org/1999/xlink">
 <defs>
  <style type="text/css">
   <![CDATA[
    .str2 {stroke:#00A2E9;stroke-width:3.21368}
    .str0 {stroke:#F25822;stroke-width:3.21368}
    .str3 {stroke:#00A2E9;stroke-width:5.35614}
    .str1 {stroke:#F25822;stroke-width:5.35614}
    .fil0 {fill:none}
   ]]>
  </style>
 </defs>
 <g id="Layer_x0020_1">
  <metadata id="CorelCorpID_0Corel-Layer"/>
  <g id="_549207440">
   <path id="_549207080" class="fil0 str0" d="M74.6496 210.669c0,0 -28.3179,-7.17915 -28.3179,-41.7574 0,0 12.307,-28.7196 -8.31391,-40.2469 0,0 -22.2711,-24.9403 -7.55805,-46.8602"/>
   <path id="_549219248" class="fil0 str1" d="M66.3855 156.588c1.61252,-0.974067 3.30763,-1.95574 5.10815,-2.94566 0,0 32.7362,-23.6665 9.49493,-48.8917 0,0 -19.1314,-20.2651 8.36125,-49.0332 0,0 14.4553,-15.7304 6.51917,-40.6722 0,0 21.1633,16.3443 14.1715,36.2789 0,0 -8.6913,24.4693 3.1177,43.6481 0,0 5.09904,4.53354 10.5742,11.5719 -0.450344,12.0813 6.45318,19.4001 6.45318,19.4001 3.26724,3.54609 5.42802,7.06153 6.72924,10.4845 0.556289,10.6746 -4.27988,21.6452 -20.0719,30.5342 0,0 -22.2959,9.353 -40.5304,10.7703 0,0 -6.32635,0.243169 -15.4808,4.59857 -3.61636,-16.9618 4.41185,-23.9625 4.41185,-23.9625 0.403424,-0.604494 0.779104,-1.19603 1.14204,-1.78156z"/>
   <path id="_548771864" class="fil0 str2" d="M58.9632 170.968c4.13697,-2.37095 9.13896,-4.28587 15.1679,-5.29069 0,0 64.6213,-1.70015 37.7906,-41.1916 0,0 -22.6744,-21.4458 -16.25,-54.4184"/>
   <path id="_549208424" class="fil0 str0" d="M92.6038 216.199c0,0 6.32935,-23.052 33.5385,-27.5868 0,0 64.6213,-1.70015 37.7906,-41.1916 0,0 -22.6744,-21.4458 -16.25,-54.4184"/>
   <path id="_82187760" class="fil0 str3" d="M90.0803 218.484c0,0 -13.0376,-19.651 30.6103,-43.6481 0,0 32.7362,-23.6665 9.49493,-48.8917 0,0 -19.1314,-20.2651 8.36125,-49.0332 0,0 14.4553,-15.7304 6.51917,-40.6722 0,0 21.1633,16.3443 14.1715,36.2789 0,0 -8.6913,24.4693 3.1177,43.6481 0,0 51.0174,45.3484 3.6847,71.9908 0,0 -22.2959,9.353 -40.5304,10.7703 0,0 -21.6357,2.55113 -35.4291,19.557z"/>
   <path id="_549212768" class="fil0 str3" d="M78.7149 213.982c0,0 -45.3487,-2.83404 -45.0653,-45.3484 0,0 13.0377,-24.375 -9.9201,-31.7442 0,0 -29.76,-11.3372 -11.6206,-46.4824 0,0 13.4627,-16.2971 -4.39332,-39.8217 0,0 -13.0376,-19.8399 2.83436,-44.7817 0,0 8.56993,20.948 24.3748,26.9257 0,0 30.0434,11.337 18.9898,39.3965 0,0 -12.7543,38.5464 7.65264,49.6002 0,0 22.7415,8.00443 4.81828,34.8616 0,0 -21.2572,17.2892 12.3294,57.3943z"/>
  </g>
 </g>
</svg>
