<?xml version="1.0" encoding="UTF-8"?>
<!DOCTYPE svg PUBLIC "-//W3C//DTD SVG 1.1//EN" "http://www.w3.org/Graphics/SVG/1.1/DTD/svg11.dtd">
<!-- Creator: CorelDRAW -->
<svg xmlns="http://www.w3.org/2000/svg" xml:space="preserve" width="112.419mm" height="98.7606mm" style="shape-rendering:geometricPrecision; text-rendering:geometricPrecision; image-rendering:optimizeQuality; fill-rule:evenodd; clip-rule:evenodd"
viewBox="0 0 4.4379 3.89873"
 xmlns:xlink="http://www.w3.org/1999/xlink">
 <defs>
  <style type="text/css">
   <![CDATA[
    .fil3 {fill:#008FD7}
    .fil4 {fill:#00A2E9}
    .fil1 {fill:#394253}
    .fil2 {fill:#FEFADD}
    .fil0 {fill:url(#id0)}
   ]]>
  </style>
  <linearGradient id="id0" gradientUnits="userSpaceOnUse" x1="2.21895" y1="7.89531e-006" x2="2.21895" y2="3.53216">
   <stop offset="0" style="stop-color:#F83624"/>
   <stop offset="1" style="stop-color:#F76C00"/>
  </linearGradient>
 </defs>
 <g id="Layer_x0020_1">
  <metadata id="CorelCorpID_0Corel-Layer"/>
  <path class="fil0" d="M2.21895 2.21894l-0.385315 -2.18523c0.127209,-0.0224266 0.25614,-0.033709 0.385315,-0.033709 1.22549,0 2.21895,0.993459 2.21895,2.21894 0,0.491467 -0.159852,0.945526 -0.43031,1.31322l-0.580329 0 0 -0.133912 -3.0881 0c-0.214796,-0.341662 -0.339163,-0.745929 -0.339163,-1.17931 0,-1.07683 0.773148,-1.99824 1.83363,-2.18523l0.385315 2.18523z"/>
  <path class="fil1" d="M1.13674 2.69678c0,0 -0.0164578,0.47722 0.19747,0.641778l1.82659 0.0329116c0,0 0.164554,-0.148096 0.197466,-0.460762 0,0 -0.888613,-0.230385 -2.22153,-0.213927z"/>
  <polygon class="fil2" points="1.18198,2.63507 2.14877,2.66387 2.14877,0.861982 "/>
  <path class="fil2" d="M2.35033 2.65571l0 -1.79317 1.00994 1.90844c0,0 -0.482695,0.0109705 -1.00994,-0.115275z"/>
  <polygon class="fil1" points="2.21894,2.737 2.21894,0.831956 2.29065,0.831956 2.29065,2.74293 "/>
  <g id="_308079000">
   <path id="_305496736" class="fil3" d="M0.221159 3.18568c1.02034,-0.568735 1.21803,0.489284 2.2805,0.399743 -1.03259,0.762008 -1.42421,-0.0937489 -2.16251,-0.187178 -0.0430294,-0.0684523 -0.082506,-0.139356 -0.117995,-0.212565z"/>
   <path id="_305487784" class="fil4" d="M0.834317 3.46206c1.38738,-1.11331 1.49335,0.223548 2.68217,0.12336 -1.24927,0.921907 -1.56029,-0.524237 -2.68217,-0.12336z"/>
   <path id="_308069424" class="fil3" d="M1.84536 3.46206c1.1536,-0.925713 1.42134,-0.157519 2.16222,0.0700945 -0.0981387,0.133446 -0.210765,0.255591 -0.335701,0.363934 -0.626576,-0.0457967 -1.01384,-0.724418 -1.82652,-0.434029z"/>
  </g>
 </g>
</svg>
