<?xml version="1.0" encoding="UTF-8"?>
<!DOCTYPE svg PUBLIC "-//W3C//DTD SVG 1.1//EN" "http://www.w3.org/Graphics/SVG/1.1/DTD/svg11.dtd">
<!-- Creator: CorelDRAW -->
<svg xmlns="http://www.w3.org/2000/svg" xml:space="preserve" width="161.696mm" height="152.228mm" style="shape-rendering:geometricPrecision; text-rendering:geometricPrecision; image-rendering:optimizeQuality; fill-rule:evenodd; clip-rule:evenodd"
viewBox="0 0 101.999 96.0265"
 xmlns:xlink="http://www.w3.org/1999/xlink">
 <defs>
  <style type="text/css">
   <![CDATA[
    .fil1 {fill:#008FD7}
    .fil0 {fill:#F15721}
    .fil3 {fill:#F5B8AD}
    .fil4 {fill:#FDDBD3}
    .fil2 {fill:#FEFEFE}
   ]]>
  </style>
 </defs>
 <g id="Layer_x0020_1">
  <metadata id="CorelCorpID_0Corel-Layer"/>
  <g id="_815146136">
   <path id="_815135024" class="fil0" d="M36.3952 22.7598c1.3966,-0.383341 2.54782,0.529183 2.84638,1.62161 0.372932,1.36418 -0.537825,2.59457 -1.61846,2.87111 -3.11839,0.798221 -4.13316,-3.69526 -1.22793,-4.49272zm-18.6402 0.979893c1.0267,1.43843 5.75143,2.57987 7.92393,3.31545 1.40644,0.476258 2.77441,1.02481 3.70232,1.84744 2.46916,2.18915 7.58506,4.67755 10.7254,6.05498 2.58643,1.13444 5.2068,2.19199 8.02732,3.08073 5.41881,1.70746 13.6759,3.52217 18.1031,-0.122124 1.14693,-0.94419 1.51065,-2.74842 1.3151,-4.23012 -0.555361,-4.20848 -3.64114,-7.0871 -3.10577,-10.5936 0.126855,-0.830771 0.534229,-1.44051 0.789516,-2.06715l-24.9251 0.392803c-3.93276,0.138399 -7.80124,0.282286 -11.5688,1.00727 -3.96979,0.763906 -6.66137,1.73043 -10.987,1.31435z"/>
   <path id="_815131280" class="fil1" d="M85.9967 56.5026c-0.440113,2.04135 -4.51165,12.6032 -5.99007,14.4128 -0.231758,0.283673 -0.466102,0.398606 -0.488307,0.788444 -0.0317926,0.557317 0.429957,1.73818 0.64626,2.12834 1.00714,1.81653 3.77821,3.30233 5.31485,2.34786 0.489001,-0.303733 1.14018,-0.929366 1.48914,-1.29252 0.469887,-0.48919 0.740503,-0.907225 1.25902,-1.41294 0.395957,-0.386116 0.824841,-1.00273 1.22212,-1.44953 1.64363,-1.84832 10.9611,-13.8897 10.8707,-16.2366 -0.0192396,-0.498526 -0.790526,-1.22957 -1.2425,-1.39887 -1.33232,-0.49903 -3.24714,0.482629 -4.30153,0.956932 -3.75903,1.69087 -5.03225,2.01858 -8.77968,1.15608z"/>
   <path id="_262279432" class="fil0" d="M72.9863 78.8809c0.123953,-0.203561 -0.314961,-0.108499 0.288404,-0.22217l-0.288404 0.22217zm0 0c-0.111653,0.337481 -0.63213,0.715523 -0.918138,0.974532 -0.346691,0.313889 -0.683478,0.583117 -1.00998,0.913091 -0.774062,0.782388 -4.35893,4.16376 -4.96974,4.64292 -0.698743,0.54817 -0.544259,0.526407 -0.938639,0.876441 -0.641529,0.569365 -1.44032,1.18995 -2.02583,1.81861 -0.931006,0.999512 -3.42427,2.64011 -3.77424,3.82401 -0.548044,1.85406 1.41578,3.37733 3.93471,0.612575l4.06479 -3.62442c0.947533,-0.711801 4.00448,-3.39228 5.15885,-4.34871 0.300011,-0.248537 0.678936,-0.527795 1.02184,-0.796077 0.709783,-0.555361 3.62442,-2.90732 4.43728,-3.05348l-1.07943 1.06751c-0.963051,1.05988 -2.55962,2.28371 -3.4642,3.16223 -1.31542,1.27732 -3.49813,2.947 -4.75053,4.11607 -0.291748,0.272319 -0.381764,0.321206 -0.632761,0.541231l-2.94164 2.60958c-0.779234,0.712621 -3.33343,2.49099 -1.08789,3.54172 1.49703,0.700447 2.51149,-0.118718 3.19005,-0.7945 0.77772,-0.774629 1.47104,-1.46126 2.23602,-2.25299l2.18385 -2.19539c0.885777,-0.980524 3.21616,-3.45164 4.27484,-4.48314l1.62748 -1.79199c0.196181,-0.19126 0.374257,-0.30613 0.567347,-0.498841 0.752993,-0.751605 1.28161,-1.51482 2.11881,-2.26043l4.27655 -4.38404 -3.95988 -1.38027c-0.41772,-0.240715 -1.26685,-1.66981 -1.51671,-2.43176 -0.0588542,-0.179275 -0.084591,-0.307518 -0.140859,-0.491587 -0.0141931,-0.0463642 -0.072795,-0.221602 -0.0840864,-0.249988 -0.0852849,-0.214726 -0.062639,-0.150195 -0.122755,-0.246519 -1.63107,1.08795 -2.7459,1.85444 -4.34215,3.07688l-6.16108 4.84156c-0.664743,0.534671 -7.85946,6.21312 -8.12799,6.50701 -0.730347,0.799105 -0.477078,2.36678 0.780874,1.86182 1.12283,-0.450837 11.179,-9.48889 12.1752,-9.70368z"/>
   <path id="_262270984" class="fil0" d="M73.1326 40.4956c0.99314,0.466733 2.05504,1.02739 3.08092,1.50826 1.04651,0.490578 2.70647,1.50201 2.97021,1.62111 1.0091,0.455631 2.8831,-0.34524 3.57982,-0.820489 0.891959,-0.608349 1.44568,-1.35611 2.00874,-2.48399 1.04733,-2.09787 1.49034,-4.5249 2.21192,-6.87439 0.762896,-2.48392 1.50195,-4.57933 3.73639,-5.33081 -2.81276,-1.77048 -6.95722,-4.41217 -10.0806,-5.40033 -0.845784,-0.267525 -1.10246,0.20968 -1.61114,0.645377 -3.911,3.34983 -0.150952,11.2052 -4.46364,16.0512 -0.449575,0.505149 -0.930186,0.609358 -1.43262,1.0841z"/>
   <path id="_815134856" class="fil1" d="M80.7104 44.4906c0.391289,0.912145 1.73238,2.20038 2.48424,2.81661 0.223747,0.183312 0.316854,0.307329 0.568356,0.495876 0.383782,0.287647 0.808377,0.569554 1.35339,0.677548 4.93404,0.977875 7.58664,-2.94971 10.0538,-6.41372 0.841747,-1.18188 1.03585,-1.29681 1.91601,-2.24725 0.67143,-0.725048 1.68583,-1.25133 3.06578,-1.14176 -1.89481,-2.74199 -4.87379,-7.14709 -7.63174,-9.24521 -0.695463,-0.529057 -0.890634,-0.788949 -1.92478,-0.270616 -0.519784,0.260523 -1.10177,0.876568 -1.4084,1.36992 -1.33245,2.14398 -1.87185,5.82 -2.83623,8.38467 -0.935989,2.48922 -2.63727,5.41982 -5.64041,5.57392z"/>
   <path id="_260950712" class="fil1" d="M65.6623 39.3401c0.506348,0.289918 2.58195,0.645062 3.28637,0.745549 1.34343,0.191639 2.69669,0.485153 3.51397,-0.110265 4.53423,-3.30366 3.21925,-8.06397 3.7075,-12.3934 0.263614,-2.33701 0.954661,-3.95282 2.78835,-5.24124 -3.21862,-0.483639 -7.88053,-1.36374 -10.9792,-1.41004 -0.990176,-0.0148239 -1.50775,-0.172399 -1.93828,0.555866 -0.735456,1.24401 -0.861302,2.50916 -0.429957,4.09305 1.14094,4.19019 5.63303,9.78342 0.723849,13.2895 -0.238823,0.17057 -0.478151,0.291685 -0.672565,0.470959z"/>
   <path id="_262266544" class="fil0" d="M100.887 54.3944c1.10851,-3.45322 1.71453,-10.4243 0.229802,-14.1111 -0.174544,-0.433427 -0.218511,-0.545584 -0.686758,-0.713694 -2.07308,-0.744225 -3.96228,2.41813 -5.10763,3.93585 -0.449007,0.594913 -0.713315,0.936873 -1.16112,1.50737 -0.214348,0.273076 -0.415638,0.488622 -0.623488,0.765293 -0.236363,0.31452 -0.356658,0.375329 -0.624245,0.654587 -1.80909,1.88794 -3.5978,3.49334 -7.58575,2.91035l0.709278 6.01972c0.244879,0.568797 1.78051,0.791472 2.45346,0.827617 2.89376,0.155178 5.012,-1.32709 7.48937,-2.30755 3.4078,-1.34854 3.93528,0.0212582 4.9071,0.51152z"/>
   <path id="_262267288" class="fil1" d="M19.7178 25.9874c-0.310419,-0.250808 -3.4724,-1.71352 -4.21252,-2.11023 -2.73694,-1.46694 -5.53778,-3.02206 -7.88986,-4.9324 -0.29692,-0.241157 -0.561922,-0.493795 -0.870701,-0.728581 -0.390216,-0.296794 -0.472663,-0.451846 -0.816704,-0.784975 -2.78204,-2.6936 -5.83205,-6.4749 -2.89798,-10.6783 1.39843,-2.0035 4.37842,-4.13947 7.66492,-5.15002 7.32637,-2.25286 14.4817,1.43754 19.6823,4.41078 2.49433,1.426 5.56131,3.19213 8.45008,4.26242l10.7404 2.00476c-4.24778,-0.881046 -6.19621,-0.84263 -10.5709,-2.71404 -6.23583,-2.66768 -12.2342,-7.25035 -17.9546,-8.75331 -3.78988,-0.995727 -8.00114,-1.23833 -11.6847,0.195613 -3.26467,1.27095 -6.17603,3.39052 -7.62013,5.73825 -2.6456,4.3009 0.383278,8.59593 3.32548,11.2285 3.48097,3.11441 5.50517,4.42819 9.95859,6.81321 1.86334,0.997871 3.30284,2.04204 4.69616,1.1984z"/>
   <path id="_260940560" class="fil0" d="M51.3076 44.694c2.2439,0.55738 4.53209,1.10202 6.76085,1.67605 0.93744,0.241472 2.59936,0.801691 3.49908,0.838719 1.56913,0.0644683 2.28232,-0.500923 2.94214,-1.40361 0.733942,-1.00424 3.26,-4.07179 3.63609,-4.93643l-2.49402 -0.641151c-1.03023,1.11949 -3.32296,3.74894 -3.72371,5.02399 -5.56276,-1.4535 -9.36418,-2.31872 -15.0769,-3.57358 -1.6165,-0.355081 -2.66856,-0.543818 -3.55686,0.751037 -1.77086,2.58145 -3.59225,7.14583 -3.6424,10.2966 0.380565,-0.582549 0.544133,-1.29082 1.15103,-2.64434 0.403716,-0.900475 0.76031,-1.63871 1.19708,-2.53748 0.865465,-1.78095 1.56301,-2.16064 2.73549,-4.73193l6.57211 1.88207z"/>
   <path id="_262279936" class="fil0" d="M67.5641 58.2385c0.219331,-0.56312 0.304174,-4.5136 0.508177,-5.66924 0.301336,-1.70683 1.98653,-6.40394 4.02101,-6.75492 2.20681,-0.380628 3.86583,-1.36588 5.71573,-1.86359l-2.50285 -1.47154c-1.69251,-0.734447 -1.0947,-0.893599 -2.56997,-0.0946839 -3.08199,1.66917 -2.64333,1.42121 -3.92677,3.76906 -0.7253,1.32684 -2.15565,3.77474 -2.28352,5.48202 -0.119412,1.59411 0.510006,5.30381 1.03818,6.6029z"/>
   <path id="_262267096" class="fil1" d="M30.3002 30.4896c-0.0210058,-0.0189242 -0.0459227,-0.0426425 -0.068884,-0.0625128 -0.0215736,-0.018798 -0.0451657,-0.0381637 -0.0671808,-0.0564571 -0.098658,-0.0821309 -0.0862942,-0.065793 -0.1888,-0.143761 -0.195297,-0.148555 -0.242797,-0.200407 -0.425668,-0.312943 -0.360632,-0.221854 -0.625822,-0.24879 -1.08757,-0.304238l-7.46565 -1.07363c-6.07762,-0.990365 -15.8911,-3.94405 -19.3458,-9.07307 -1.10334,-1.63814 -0.718992,-2.7833 0.112283,-4.26462l-0.474807 -0.930312 -1.28817 4.38612c0.491335,1.47539 1.72607,2.84821 2.54227,3.55156 0.294839,0.254089 0.512214,0.49493 0.849758,0.754191 6.63172,5.09344 18.9738,7.30012 27.0499,7.66687l-0.141679 -0.1372z"/>
   <path id="_815135168" class="fil0" d="M18.2578 40.4348c2.54707,-0.224945 10.3028,-1.35251 12.8224,-1.87393 2.74186,-0.56741 8.77318,0.473167 13.9522,-0.391793l-1.50018 -0.555992c-0.78201,-0.362524 -0.503509,-0.465219 -1.50744,-0.420243 -3.33337,0.149312 -8.74448,-0.436581 -11.2679,0.173282 -1.57411,0.380439 -10.8948,2.14493 -12.2068,2.85673 -0.401003,0.217565 -0.136443,0.0659823 -0.292252,0.211951z"/>
   <path id="_815134280" class="fil0" d="M26.9691 47.336c0.732365,-0.181924 7.9947,-3.2824 8.97895,-3.81126 1.04209,-0.559903 1.54932,-1.05225 2.77952,-1.38096 2.16612,-0.578701 4.52098,-1.13766 6.59097,-1.85167 0.763969,-0.263551 0.888111,-0.42163 1.77887,-0.268723 1.69971,0.291748 4.25447,0.404599 5.93948,0.354954l-3.57913 -1.00872c-3.35872,-0.987085 -2.88448,-0.802259 -5.66293,0.0319818 -0.614405,0.184448 -1.13722,0.333065 -1.75591,0.487613 -3.56594,0.890445 -3.67671,0.604627 -6.59968,2.47888 -2.32174,1.4887 -6.72294,3.46287 -8.47014,4.96791z"/>
   <path id="_815134664" class="fil0" d="M73.8835 57.5364c0.225828,-1.3715 0.00504645,-2.79056 0.352873,-4.25434 0.156503,-0.658498 0.412484,-1.1046 0.770781,-1.575 0.309915,-0.406807 0.679188,-0.829762 1.03843,-1.2044 1.87602,-1.95657 -0.0268092,-0.870827 3.01752,-1.56623 1.23953,-0.283169 2.33638,-0.768637 3.43259,-1.16365l-1.76758 -2.16158c-1.79004,0.776143 -3.8447,1.53816 -5.39408,2.57829 -1.8123,1.2167 -2.72439,2.8503 -2.43144,5.36008 0.0868619,0.744225 0.236678,1.43925 0.414376,2.13736 0.095504,0.375203 0.568293,1.75944 0.566527,1.84946z"/>
   <path id="_815133752" class="fil1" d="M3.1194 12.7236l0.32783 0.892464c2.25967,-0.877829 1.95575,-1.21619 5.42007,-1.87002 2.16884,-0.40933 4.4128,-0.584946 6.66244,-0.627399 4.577,-0.0863573 9.25348,0.326883 13.7565,0.81847l26.5717 1.39616c-0.758102,-0.0560786 -2.35581,0.157828 -3.36819,0.134109 -1.1521,-0.0269985 -2.28957,-0.0909622 -3.43682,-0.171264 -6.3864,-0.4468 -13.3991,-1.52485 -19.853,-2.2364 -5.64262,-0.622101 -15.0602,-1.4171 -20.7203,-0.348268 -1.01055,0.190882 -1.8979,0.445475 -2.82563,0.804025 -0.938513,0.362776 -1.79098,0.916182 -2.53451,1.20812z"/>
   <path id="_260946200" class="fil0" d="M76.3949 60.9295l0.226018 -0.0628282c0.108309,-1.7122 1.50756,-5.24357 2.36937,-6.24397 2.31897,-2.69203 2.4064,-0.409519 4.52408,-1.66709 1.52207,-0.903944 1.18812,-0.972576 1.05982,-2.84228l-3.56065 1.19134c-2.13231,0.807999 -3.78225,3.09234 -4.39842,5.21304 -0.562742,1.93664 -0.195045,2.6121 -0.220214,4.41179z"/>
   <path id="_262279696" class="fil0" d="M76.6234 66.8982c0.646639,-0.589236 2.80772,-5.23045 3.58291,-6.46683 0.289792,-0.462254 0.780433,-1.18396 1.1053,-1.45533 1.18604,-0.990617 3.95162,1.21544 4.05797,-3.28896l-3.85693 1.13993c-1.47943,0.71382 -4.66607,7.32574 -4.88925,10.0712z"/>
   <path id="_815135120" class="fil2" d="M36.3952 22.7598c-2.90524,0.797465 -1.89046,5.29095 1.22793,4.49272 1.08063,-0.276545 1.99139,-1.50693 1.61846,-2.87111 -0.29856,-1.09243 -1.44978,-2.00495 -2.84638,-1.62161z"/>
   <path id="_262271080" class="fil0" d="M17.7366 19.1687c0.684109,0.363281 6.93009,1.37213 8.35061,1.71251 1.96786,0.471653 2.54398,0.863005 4.01766,0.656164 0.890004,-0.1249 3.79146,-0.310546 4.34758,-0.540159l-14.8634 -1.90497 -1.85242 0.0764536z"/>
   <path id="_818274624" class="fil1" d="M23.5623 28.2077c1.52712,0.339058 3.70819,0.95586 5.20629,1.11514 -2.36924,-1.04581 -5.18049,-2.56587 -7.79613,-2.81913 -0.580467,-0.0562048 -2.15584,0.505717 -2.7517,0.693318l5.34154 1.01068z"/>
   <polygon id="_815145440" class="fil3" points="76.6209,60.8666 76.3949,60.9295 76.4784,61.1453 "/>
   <path id="_815145632" class="fil4" d="M72.9863 78.8809l0.288404 -0.22217c-0.603366,0.113671 -0.164451,0.0186088 -0.288404,0.22217z"/>
  </g>
 </g>
</svg>
